<svg width="66" height="55" viewBox="0 0 66 55" fill="none" xmlns="http://www.w3.org/2000/svg">
<path d="M18 8L25 12.5C25.8333 13.1667 27.6 13.8 28 11C28.4 8.2 30.5 2.83333 31.5 0.5C31.5 4.66667 32.6 12.9 37 12.5L46 3L40.5 15C40.3333 16.1667 41.8 18.8 49 20L42 22.5C41.1667 23 41 25.5 47 31.5C42.5 29.6667 35 28.1 41 36.5C39.3333 37 35.8 38.3 35 39.5C34.2 40.7 31 41 29.5 41C29.8333 39.8333 30.2 37.3 29 36.5V35L26 35.5C24.8333 35.6667 22.6 35.5 23 33.5C22.5 32.5 21.6 30.3 22 29.5C21.1667 30 20 29.7 22 24.5C21.1667 23.6667 20 21 22 17L18 8Z" fill="white"/>
<path d="M8 46.5H1V51H6.13397V52H1V53.5H8V49H3V48H8V46.5Z" fill="white"/>
<path d="M0.5 45.5H6.5V45H0V51.5H0.5V45.5Z" fill="white"/>
<path d="M9 46.5H10.5V49.5H13.5V46.5H15V53.5H13.5V50.5H10.5V53.5H9V46.5Z" fill="white"/>
<path d="M16 46.5H22.5V48H17.5V49.5H22.5V50.5H17.5V52H22.5V53.5H16V46.5Z" fill="white"/>
<path d="M23.5 46.5H25L26 51.5H27.5L28.5 46.5H30L29 53.5H24.5L23.5 46.5Z" fill="white"/>
<path d="M31 46.5H37.5V48H32.5V49.5H37.5V50.5H32.5V52H37.5V53.5H31V46.5Z" fill="white"/>
<path d="M38.5 46.5H40V52H45V53.5H38.5V46.5Z" fill="white"/>
<path d="M46 46.5H47.5V48H46V46.5Z" fill="white"/>
<path d="M46 48.5H47.5V53.5H46V48.5Z" fill="white"/>
<path d="M48.5 46.5H55.5V48.5L51.5 51.5H55.5V53.5H48.5V51.5L52.5 48.5H48.5V46.5Z" fill="white"/>
<path d="M56.5 46.5H66V53.5H64V48.5H62.5V53.5H60V48.5H58.5V53.5H56.5V46.5Z" fill="white"/>
<path d="M64 48.5V54H58V54.5H64.5V48H64V48.5Z" fill="white"/>
</svg>
