<?xml version="1.0" encoding="UTF-8" standalone="no"?>
<!-- Created with Inkscape (http://www.inkscape.org/) -->

<svg
   xmlns:dc="http://purl.org/dc/elements/1.1/"
   xmlns:cc="http://creativecommons.org/ns#"
   xmlns:rdf="http://www.w3.org/1999/02/22-rdf-syntax-ns#"
   xmlns:svg="http://www.w3.org/2000/svg"
   xmlns="http://www.w3.org/2000/svg"
   version="1.1"
   width="300"
   height="214.31186"
   id="svg3818"
   xml:space="preserve"><metadata
     id="metadata3824"><rdf:RDF><cc:Work
         rdf:about=""><dc:format>image/svg+xml</dc:format><dc:type
           rdf:resource="http://purl.org/dc/dcmitype/StillImage" /><dc:title></dc:title></cc:Work></rdf:RDF></metadata><defs
     id="defs3822" /><g
     transform="matrix(1.25,0,0,-1.25,-289.94014,559.63588)"
     id="g3826"><g
       transform="matrix(1.2948477,0,0,1.2948477,-68.390533,-81.454377)"
       id="g4151"><path
         d="m 231.9521,276.2592 185.34999,0 0,132.409 -185.34999,0 0,-132.409 z"
         id="path4086"
         style="fill:#bfdf14;fill-opacity:1;fill-rule:nonzero;stroke:none" /><path
         d="m 264.1157,312.4492 c -0.317,1.158 -0.946,3.402 -4.253,3.402 -1.922,0 -4.827,-1.375 -4.827,-6.786 0,-3.436 1.452,-6.62 4.827,-6.62 2.221,0 3.779,1.341 4.253,3.691 l 3.992,0 c -0.791,-4.175 -3.513,-7.077 -8.318,-7.077 -5.094,0 -8.741,3.464 -8.741,10.061 0,6.708 3.858,10.11 8.791,10.11 5.735,0 8.05,-3.958 8.268,-6.781 l -3.992,0 z"
         id="path4088"
         style="fill:#5d6163;fill-opacity:1;fill-rule:nonzero;stroke:none" /><path
         d="m 272.994,308.3774 4.693,5.389 4.571,0 -4.989,-5.489 5.123,-8.718 -4.466,0 -3.385,6.102 -1.547,-1.615 0,-4.487 -3.725,0 0,14.207 3.725,0 0,-5.389 z"
         id="path4090"
         style="fill:#5d6163;fill-opacity:1;fill-rule:nonzero;stroke:none" /><path
         d="m 296.0192,306.691 c 0,-5.121 -3.435,-7.504 -7.238,-7.504 -3.797,0 -7.26,2.348 -7.26,7.471 0,5.127 3.463,7.478 7.26,7.478 3.803,0 7.238,-2.323 7.238,-7.445 m -10.668,0 c 0,-1.82 0.552,-4.353 3.43,-4.353 2.879,0 3.407,2.505 3.407,4.32 0,1.826 -0.528,4.332 -3.407,4.332 -2.878,0 -3.43,-2.478 -3.43,-4.299"
         id="path4092"
         style="fill:#5d6163;fill-opacity:1;fill-rule:nonzero;stroke:none" /><path
         d="m 310.0164,313.7676 0,-14.208 -3.725,0 0,11.218 -3.986,0 0,-4.381 c 0,-5.434 -1.636,-7.148 -4.253,-7.148 -0.651,0 -1.715,0.105 -2.266,0.311 l 0,2.778 c 0.077,-0.055 0.551,-0.106 1.102,-0.106 1.119,0 1.698,0.552 1.698,4.878 l 0,6.658 11.43,0 z"
         id="path4094"
         style="fill:#5d6163;fill-opacity:1;fill-rule:nonzero;stroke:none" /><path
         d="m 315.6437,308.3774 4.693,5.389 4.571,0 -4.994,-5.489 5.128,-8.718 -4.466,0 -3.379,6.102 -1.553,-1.615 0,-4.487 -3.725,0 0,14.207 3.725,0 0,-5.389 z"
         id="path4096"
         style="fill:#5d6163;fill-opacity:1;fill-rule:nonzero;stroke:none" /><path
         d="m 338.6687,306.691 c 0,-5.121 -3.429,-7.504 -7.232,-7.504 -3.803,0 -7.26,2.348 -7.26,7.471 0,5.127 3.457,7.478 7.26,7.478 3.803,0 7.232,-2.323 7.232,-7.445 m -10.661,0 c 0,-1.82 0.551,-4.353 3.429,-4.353 2.866,0 3.413,2.505 3.413,4.32 0,1.826 -0.547,4.332 -3.413,4.332 -2.878,0 -3.429,-2.478 -3.429,-4.299"
         id="path4098"
         style="fill:#5d6163;fill-opacity:1;fill-rule:nonzero;stroke:none" /><path
         d="m 339.876,313.7666 6.414,0 c 3.173,0 5.494,-1.298 5.494,-3.67 0,-1.636 -1.163,-2.688 -2.645,-3.061 1.453,-0.347 3.067,-1.275 3.067,-3.598 0,-2.632 -1.992,-3.88 -5.21,-3.88 l -7.12,0 0,14.209 z m 3.718,-5.752 2.428,0 c 1.236,0 2.111,0.495 2.111,1.609 0,1.159 -0.842,1.581 -2.083,1.581 l -2.456,0 0,-3.19 z m 0,-5.896 2.739,0 c 1.376,0 2.228,0.423 2.228,1.827 0,1.241 -0.897,1.815 -2.271,1.815 l -2.696,0 0,-3.642 z"
         id="path4100"
         style="fill:#5d6163;fill-opacity:1;fill-rule:nonzero;stroke:none" /><path
         d="m 367.11509,306.691 c 0,-5.121 -3.424,-7.504 -7.232,-7.504 -3.79799,0 -7.26599,2.348 -7.26599,7.471 0,5.127 3.468,7.478 7.26599,7.478 3.808,0 7.232,-2.323 7.232,-7.445 m -10.66699,0 c 0,-1.82 0.56099,-4.353 3.43499,-4.353 2.878,0 3.402,2.505 3.402,4.32 0,1.826 -0.524,4.332 -3.402,4.332 -2.874,0 -3.43499,-2.478 -3.43499,-4.299"
         id="path4102"
         style="fill:#5d6163;fill-opacity:1;fill-rule:nonzero;stroke:none" /><path
         d="m 278.1252,322.4419 c 3.174,0 10.99,0.556 16.831,4.821 l 0,-3.235 11.785,0 0.012,14.225 4.921,5.094 10.712,-19.319 14.14,0 -16.228,27.604 15.806,17.398 -14.47501,0 -14.87599,-17.07 0,32.792 -11.797,0 0,-5.188 c -3.592,3.857 -9.415,6.774 -18.495,6.774 -19.654,0 -23.344,-11.957 -23.344,-18.65 0,-9.197 4.944,-14.308 13.556,-16.396 l 12.21,-3.006 c 6.44,-1.592 11.045,-2.761 11.045,-7.528 0,-6.358 -6.697,-7.861 -12.721,-7.861 -11.041,0 -12.878,6.437 -12.878,9.865 l -12.131,0 c 0,-7.526 3.847,-20.32 25.927,-20.32 m 8.034,36.21 -14.798,3.603 c -2.516,0.584 -6.448,1.592 -6.448,6.352 0,5.439 5.774,7.281 10.624,7.281 11.04,0 12.048,-6.446 12.376,-9.202 l 7.043,0 0,-11.319 c -2.584,1.509 -5.634,2.489 -8.797,3.285"
         id="path4104"
         style="fill:#5d6163;fill-opacity:1;fill-rule:nonzero;stroke:none" /></g></g></svg>