<svg width="122" height="29" viewBox="0 0 122 29" fill="none" xmlns="http://www.w3.org/2000/svg">
<path d="M2.92938 0H30.4426L27.5132 6.9501H17.806L14.8192 13.9002H22.4011L16.5998 28.0876H9.0179L14.7043 13.9576H7.23729L10.1667 6.9501H0L2.92938 0Z" fill="white"/>
<path d="M44.1705 0H36.646L30.9021 13.9002H38.5415L44.1705 0Z" fill="white"/>
<path d="M45.8936 13.9002H38.5415L32.6253 28.0876H40.3221L46.1808 13.9002H53.5904L59.3343 0H51.7524L45.8936 13.9002Z" fill="white"/>
<path fill-rule="evenodd" clip-rule="evenodd" d="M63.1877 6.79908C64.8881 2.6841 68.9015 0 73.3539 0H76.049C79.5911 0.0765851 86.6752 2.3435 86.6752 10.7985C86.6752 16.3701 81.5057 21.8268 72.6027 21.0226L72.2315 21.9177C70.6829 25.6527 67.0374 28.0876 62.9941 28.0876H62.034L67.8353 13.9002H60.2533L63.1877 6.79908ZM70.8221 6.83522L67.9502 13.9002H75.8193C76.9872 13.7087 79.323 12.7055 79.323 10.2241C79.323 7.74276 77.4084 6.93095 76.4511 6.83522H70.8221Z" fill="white"/>
<path d="M95.9229 0H113.384L110.512 6.9501H100.805L97.9332 13.9002H105.4L102.528 21.1949H110.8L107.985 28.0302H92.017L97.646 14.0725H90.1215L95.9229 0Z" fill="white"/>
<g clip-path="url(#clip0_326_111)">
<path fill-rule="evenodd" clip-rule="evenodd" d="M119.602 0H118.368L118.214 0.401472H118.619L117.98 2.06348H118.41L119.044 0.401472H119.448L119.602 0ZM121.648 0L120.712 1.23464L120.725 0H120.367L119.278 2.0678H119.704L120.325 0.833163L120.316 2.0678H120.465L121.401 0.833163L121.078 2.0678H121.508L122.001 0H121.644H121.648Z" fill="white"/>
</g>
<defs>
<clipPath id="clip0_326_111">
<rect width="4.02072" height="2.0678" fill="white" transform="translate(117.98)"/>
</clipPath>
</defs>
</svg>
