<svg width="71" height="60" viewBox="0 0 71 60" fill="none" xmlns="http://www.w3.org/2000/svg">
<path d="M0 30.0001V59.9998H7.45272H14.9054V56.6539V53.308L11.2417 53.2853L7.56651 53.2513L7.53237 26.6202L7.50962 0.000413571H3.75481H0V30.0001Z" fill="white"/>
<path d="M31.6309 8.44972V16.8995H35.3857H39.1405V8.44972V-0.000101084H35.3857H31.6309V8.44972Z" fill="white"/>
<path d="M63.2637 26.6542V53.308L51.237 53.2853L39.1988 53.2513L39.1647 39.0397L39.1419 24.8395H35.3871H31.6323L31.6096 39.0397L31.5754 53.2513L27.2289 53.2853L22.8711 53.308V56.6539V59.9998H46.936H71.0009V30.0001V0.000413571H67.1323H63.2637V26.6542Z" fill="white"/>
</svg>
