<svg width="223" height="81" viewBox="0 0 223 81" fill="none" xmlns="http://www.w3.org/2000/svg">
<path fill-rule="evenodd" clip-rule="evenodd" d="M218.613 5.48111H216.358L216.078 6.2073H216.817L215.65 9.21356H216.436L217.595 6.2073H218.333L218.613 5.48111ZM222.354 5.48111L220.643 7.71433L220.667 5.48111H220.013L218.022 9.22137H218.8L219.936 6.98815L219.92 9.22137H220.192L221.903 6.98815L221.312 9.22137H222.098L223 5.48111H222.346H222.354Z" fill="white"/>
<path fill-rule="evenodd" clip-rule="evenodd" d="M8.17288 7.31653C7.77499 8.25746 7.2169 9.58222 6.93278 10.2604L6.41612 11.4937H3.20814H0V12.1302V12.7667H2.91161H5.82338L5.71267 13.1112C5.65175 13.3006 5.07191 14.7149 4.42406 16.2541L3.24633 19.0523L12.278 19.0934C20.7748 19.1321 21.3049 19.151 21.2296 19.4117C21.1858 19.5641 20.0533 22.368 18.7133 25.6425C17.3731 28.917 16.2768 31.6201 16.2768 31.6497C16.2768 31.6791 19.2222 31.7032 22.8225 31.7032C28.9796 31.7032 29.3633 31.7197 29.2876 31.9816C29.2433 32.1349 26.9868 37.696 24.2729 44.34C21.5592 50.9838 19.3388 56.444 19.3388 56.4736C19.3388 56.5032 20.7892 56.5274 22.5619 56.5274C24.4663 56.5274 25.785 56.5887 25.785 56.677C25.785 56.7593 25.3857 57.8514 24.8975 59.1037L24.0123 61.5027L25.221 61.9801L26.1004 59.7577C26.19 59.5265 26.2884 59.2725 26.3968 58.9939L27.3253 56.607L30.8369 56.5274L34.3484 56.4478L39.7208 43.3992L45.0933 30.3506L38.3633 30.271L31.633 30.1914L33.9861 24.6617L36.3393 19.1319L45.0424 19.1306L53.7456 19.1292L56.527 12.487C58.0567 8.83367 59.3078 5.79095 59.307 5.72523C59.3062 5.65951 47.9635 5.60588 34.101 5.60588H8.89631L8.17288 7.31653ZM52.8228 17.6585C52.9405 17.5148 56.4282 9.32093 57.3265 7.07783C57.39 6.91918 52.5829 6.87892 33.6149 6.87892H9.8236L9.66615 7.23696C9.57945 7.43397 9.15158 8.45431 8.71501 9.50456L7.92148 11.4141L16.6921 11.4553L25.4627 11.4964V12.1316V12.7667L16.3977 12.7701L7.33261 12.7734L6.32909 15.178C5.77713 16.5005 5.36441 17.6448 5.41195 17.7207C5.45949 17.7967 9.51451 17.8589 14.423 17.8589H23.3477L20.8597 23.9352C19.4914 27.2773 18.3718 30.1058 18.3718 30.2209C18.3718 30.52 29.8905 30.5302 30.0864 30.2312C30.1581 30.1219 31.3799 27.3112 32.8016 23.9854L35.3862 17.9384L44.0235 17.8972C50.6658 17.8656 52.6983 17.8105 52.8228 17.6585ZM38.2403 43.439C40.877 37.028 43.0331 31.7291 43.0315 31.6634C43.03 31.5977 40.3074 31.544 36.9813 31.544H30.934L30.7937 31.9021C30.7167 32.0991 28.5791 37.3504 26.0437 43.5715C23.5082 49.7929 21.4338 54.9719 21.4338 55.0806C21.4338 55.2338 21.9825 55.2534 23.8914 55.168C25.243 55.1073 26.3961 55.0125 26.4535 54.9571C26.5109 54.9019 28.097 50.8823 29.978 46.0248C31.859 41.1674 33.4145 37.1744 33.4346 37.1513C33.4851 37.0932 34.6486 37.5801 34.6486 37.6594C34.6486 37.7081 28.7738 52.8676 28.0304 54.7372L27.8881 55.0952H30.6671H33.4462L38.2403 43.439Z" fill="white"/>
<path fill-rule="evenodd" clip-rule="evenodd" d="M66.3094 12.2496C61.2587 24.2522 58.9647 29.9796 58.7565 31.1064L58.6462 31.7032H65.0999C68.6494 31.7032 71.5534 31.7431 71.5534 31.792C71.5534 31.841 69.269 37.4228 66.477 44.1961C63.6849 50.9695 61.4005 56.5535 61.4005 56.6051C61.4005 56.6565 64.7339 56.6781 68.8081 56.6528C75.3193 56.6125 76.2466 56.5764 76.4714 56.3543C76.6121 56.2154 78.9416 50.7373 81.6482 44.1808C84.3547 37.6244 86.6068 32.1707 86.6528 32.0612C86.7179 31.9067 88.234 31.8613 93.4476 31.8582L100.159 31.8542L105.575 18.8493C108.553 11.6967 110.983 5.83662 110.973 5.82692C110.964 5.81705 107.62 5.7631 103.543 5.70661L96.1297 5.60414L95.7038 6.36095C95.1644 7.31891 94.7786 8.22436 90.3281 18.9728C88.3169 23.8302 86.4539 28.3236 86.1882 28.9582L85.705 30.1119H82.8999C81.357 30.1119 80.0947 30.0636 80.0947 30.0048C80.0947 29.9459 80.4977 28.864 80.9904 27.6005C81.4829 26.337 81.8637 25.2877 81.8365 25.2686C81.8091 25.2493 81.5444 25.1384 81.2482 25.0218C80.8283 24.8564 80.6829 24.8525 80.5883 25.0035C80.5217 25.1099 80.0389 26.3079 79.5155 27.6657L78.5637 30.1343L76.3607 30.0832C75.1491 30.0552 74.1171 29.9917 74.0671 29.9422C74.0172 29.8927 74.8872 27.6729 76.0005 25.0092C80.4084 14.4619 83.3312 7.29138 83.478 6.6633C83.5053 6.54649 83.5358 6.4408 83.5634 6.34518C83.6307 6.11201 83.6808 5.93868 83.625 5.80998C83.4637 5.43722 82.4154 5.4388 78.3308 5.44493H78.3303H78.3299H78.3294H78.3288C77.7508 5.4458 77.1119 5.44675 76.4061 5.44675H69.172L66.3094 12.2496ZM72.4093 29.8966C72.6752 29.496 79.7587 12.5675 81.6913 7.71435L82.0239 6.87892H76.0016C70.4055 6.87892 69.9736 6.89865 69.8961 7.1574C69.8501 7.31048 68.5317 10.4792 66.9662 14.1989C64.1718 20.8384 60.7401 29.2072 60.5224 29.913L60.4119 30.271H66.2865H72.161L72.4093 29.8966ZM104.111 18.8137C108.237 8.91403 108.881 7.26147 108.649 7.16854C108.499 7.10902 105.794 7.0554 102.636 7.04919C98.2207 7.0406 96.8591 7.08404 96.7416 7.23696C96.6577 7.34644 96.4246 7.82972 96.2238 8.31109C95.4426 10.1834 87.8413 28.4964 87.4547 29.4375L87.0455 30.4339L93.174 30.3923L99.3026 30.3506L104.111 18.8137ZM74.5546 40.4553C76.4458 35.5979 77.6723 31.8882 77.6741 31.8225L73.0844 31.7035L68.3464 43.2004C65.7403 49.5238 63.5742 54.8236 63.5326 54.9778C63.4613 55.2426 63.7984 55.256 69.5528 55.2165L75.6485 55.1748L80.5043 43.3992L85.1991 31.9419L79.3622 31.8623L75.9815 40.5328C73.4571 47.0533 72.3592 49.7271 72.3592 49.7271L71.1159 49.287L74.5546 40.4553Z" fill="white"/>
<path fill-rule="evenodd" clip-rule="evenodd" d="M169.252 18.5401C166.303 25.6484 163.891 31.5181 163.893 31.5838C163.895 31.6495 166.901 31.7032 170.574 31.7032H177.251L175.393 36.1986C174.371 38.6711 172.097 44.2386 170.338 48.5709L167.142 56.4478L170.853 56.4906C174.297 56.5303 174.557 56.5532 174.455 56.8089C174.395 56.9604 173.996 57.9795 173.568 59.0735C173.141 60.1675 172.741 61.1843 172.68 61.3331C172.596 61.5403 172.711 61.6617 173.173 61.8524C173.505 61.9892 173.798 62.0794 173.825 62.0529C173.871 62.0072 174.992 59.1849 175.687 57.364L176.005 56.5296L186.483 56.4887L196.961 56.4478L199.749 49.7644L202.536 43.0809L195.222 43.0396C191.2 43.0168 187.908 42.9401 187.908 42.869C187.908 42.798 189.029 40.0727 190.399 36.8128C191.769 33.5529 192.934 30.7474 192.988 30.5784C193.085 30.278 192.935 30.271 186.388 30.271C180.984 30.271 179.689 30.2309 179.689 30.0632C179.689 29.9489 180.692 27.4604 181.918 24.5334L184.147 19.2115L192.86 19.1703C199.617 19.1384 201.591 19.0848 201.652 18.9316C201.756 18.6698 206.669 6.96931 206.996 6.20262L207.251 5.60588L190.932 5.61082L174.613 5.61559L169.252 18.5401ZM200.569 17.7371C200.725 17.63 205.152 7.25113 205.152 6.99175C205.152 6.92969 198.497 6.87892 190.363 6.87892H175.574L170.723 18.5352C168.054 24.9462 165.902 30.2451 165.941 30.3108C165.979 30.3765 168.68 30.4301 171.944 30.4301C176.502 30.4301 177.912 30.384 178.029 30.2312C178.112 30.1219 179.249 27.4544 180.556 24.3036C182.177 20.3935 183.058 18.4613 183.333 18.2169L183.736 17.8589L192.067 17.8565C196.649 17.8551 200.475 17.8014 200.569 17.7371ZM188.242 38.4662C189.563 35.3154 190.754 32.4691 190.887 32.1408L191.129 31.544H184.957H178.785L175.29 40.0177C171.423 49.3928 169.214 54.8806 169.214 55.1107C169.214 55.2019 170.375 55.2443 172.147 55.2182L175.081 55.1748L178.576 46.184L178.83 45.5307L179.067 44.9183L182.107 37.315L183.154 37.6332L179.988 46.2635C178.147 50.9897 176.638 54.9466 176.634 55.0567C176.629 55.2159 178.618 55.2485 186.328 55.2159L196.028 55.1748L198.251 49.844C199.474 46.912 200.475 44.4601 200.476 44.3954C200.477 44.3306 197.185 44.259 193.159 44.2362L185.839 44.1949L188.242 38.4662Z" fill="white"/>
<path d="M71.5534 78.4873V80.0786H71.9563H72.3592V78.4873V76.896H71.9563H71.5534V78.4873Z" fill="white"/>
<path d="M71.5534 75.066V75.4638H74.6154H77.6773V77.7712V80.0786H78.1608H78.6443V77.7712V75.4638H81.3034H83.9624V77.7712V80.0786H84.3653H84.7682V77.3734V74.6682H78.1608H71.5534V75.066Z" fill="white"/>
<path fill-rule="evenodd" clip-rule="evenodd" d="M86.0575 77.3734V80.0786H90.731H95.4045V77.3734V74.6682H90.731H86.0575V77.3734ZM94.6091 79.2887L94.5636 77.4161L94.5182 75.5434L90.7674 75.5008C87.7561 75.4664 87.0002 75.4998 86.934 75.6706C86.8885 75.7875 86.8721 76.6303 86.8976 77.5434L86.9438 79.2034L90.7764 79.246L94.6091 79.2887Z" fill="white"/>
<path d="M96.8549 75.066V75.4638H101.367H105.88V75.066V74.6682H101.367H96.8549V75.066Z" fill="white"/>
<path d="M96.8549 77.3734V77.8508H101.045H105.235V78.5669V79.283H101.126H97.0161V79.6808V80.0786H101.528H106.041V78.4873V76.896H101.448H96.8549V77.3734Z" fill="white"/>
<path d="M107.491 75.066V75.4638H112.084H116.677V75.066V74.6682H112.084H107.491V75.066Z" fill="white"/>
<path d="M107.491 78.4873V80.0786H112.084H116.677V79.6808V79.283H112.487H108.297V78.0895C108.297 76.9226 108.288 76.896 107.894 76.896H107.491V78.4873Z" fill="white"/>
<path fill-rule="evenodd" clip-rule="evenodd" d="M118.128 77.3734V80.0786H122.721H127.313V77.3734V74.6682H122.721H118.128V77.3734ZM126.508 79.283V77.3734V75.4638H122.721H118.933V77.3734V79.283H122.721H126.508Z" fill="white"/>
<path d="M128.764 76.2595V77.8508H129.167H129.57V76.2595V74.6682H129.167H128.764V76.2595Z" fill="white"/>
<path d="M134.888 76.9756V79.283H131.826H128.764V79.6808V80.0786H135.371H141.979V77.3734V74.6682H141.576H141.173V76.9756V79.283H138.514H135.855V76.9756V74.6682H135.371H134.888V76.9756Z" fill="white"/>
<path fill-rule="evenodd" clip-rule="evenodd" d="M129.49 0.218704C129.444 0.337256 128.979 1.5441 128.457 2.90068L127.507 5.36719L124.711 5.44675C121.786 5.52998 121.366 5.62482 121.001 6.28585C120.893 6.48078 120.428 7.53533 119.966 8.62935L119.127 10.6185L116.049 10.6618L112.971 10.7049V11.4176V12.1302H115.71C117.217 12.1302 118.45 12.1588 118.45 12.194C118.45 12.2292 116.938 15.899 115.09 20.3494C111.739 28.4184 110.552 31.3577 110.553 31.5838C110.553 31.6495 113.486 31.7032 117.071 31.7032C120.81 31.7032 123.627 31.7649 123.678 31.848C123.728 31.9275 123.617 32.3392 123.431 32.763C123.171 33.354 114.21 55.322 113.838 56.2798C113.774 56.4445 115.125 56.5085 120.662 56.6025C128.036 56.7277 128.283 56.7085 128.948 55.9526C129.093 55.7875 130.206 53.2533 131.422 50.3213C132.638 47.3894 133.735 44.7937 133.861 44.5529L134.09 44.1153L137.35 44.1146C141.846 44.1137 144.176 43.7103 147.257 42.3988C151.265 40.6926 155.121 37.0273 157.242 32.9075C160.657 26.2756 159.946 19.0699 155.272 12.9438C152.393 9.1696 148.545 6.86492 143.516 5.90234C141.595 5.53459 136.457 5.26503 132.068 5.30147C130.384 5.31547 129.019 5.26439 129.035 5.18801C129.06 5.06866 130.466 1.39658 130.772 0.652649C130.849 0.465831 130.768 0.366535 130.481 0.295404C130.262 0.241141 129.968 0.153303 129.828 0.100153C129.684 0.0457309 129.536 0.0977655 129.49 0.218704ZM125.979 9.26587C126.271 8.52194 126.618 7.64481 126.749 7.31653L126.989 6.71979H124.764C123.227 6.71979 122.463 6.78122 122.288 6.9187C122.149 7.02819 121.703 7.92504 121.297 8.91196L120.558 10.7063L123.003 10.6624L125.447 10.6185L125.979 9.26587ZM152.696 12.0363C150.162 9.50711 147.242 8.01686 143.178 7.17952C141.759 6.88736 140.824 6.83993 135.012 6.76642L128.448 6.68335L128.298 7.05954C127.524 9.00744 126.991 10.4323 126.991 10.5526C126.991 10.6377 129.364 10.698 132.712 10.698H138.433V11.4122V12.1264L132.365 12.1681L126.296 12.2098L123.915 18.3363C122.605 21.7058 121.47 24.5652 121.391 24.6905C121.268 24.8878 121.172 24.8876 120.667 24.6887L120.085 24.4596L122.248 18.8916C123.437 15.8292 124.519 13.0552 124.652 12.7269L124.894 12.1302H122.428H119.963L118.295 16.1482C117.378 18.3581 115.695 22.4109 114.557 25.1543C113.419 27.8979 112.528 30.2072 112.577 30.2863C112.628 30.3677 115.273 30.4301 118.682 30.4301H124.697L127.361 24.1047L130.025 17.7793L134.431 17.7346C139.569 17.6826 141.143 17.8248 142.53 18.4669C144.996 19.6091 146.567 22.4789 146.146 25.0762C145.744 27.5594 143.49 30.0805 140.757 31.1044C139.812 31.4583 139.734 31.4611 132.623 31.4124L125.444 31.3633L124.616 33.403C124.16 34.5249 121.975 39.8824 119.76 45.3088L115.731 55.1748L121.716 55.2165C126.37 55.249 127.744 55.2136 127.896 55.0574C128.003 54.9469 128.89 52.9231 129.866 50.56C130.132 49.9174 130.374 49.3313 130.594 48.7966L133.276 42.7953H137.507C141.693 42.7001 142.669 42.5644 145.24 41.7205C147.858 40.8612 150.255 39.4133 152.161 37.5399C156.254 33.5177 158.53 27.79 157.974 22.9111C157.508 18.8269 155.638 14.9735 152.696 12.0363ZM144.346 22.0306C143.782 20.9637 142.911 20.1017 141.891 19.6026C141.101 19.2158 141.036 19.211 136.003 19.1618L130.913 19.112L128.69 24.4131C127.467 27.3285 126.431 29.8065 126.387 29.9195C126.322 30.0859 127.608 30.1162 133.139 30.0786L139.972 30.0323L141.039 29.5132C142.28 28.9101 143.793 27.421 144.406 26.1993C144.989 25.0385 144.963 23.1991 144.346 22.0306Z" fill="white"/>
</svg>
