<svg width="224" height="215" viewBox="0 0 224 215" fill="none" xmlns="http://www.w3.org/2000/svg">
<path fill-rule="evenodd" clip-rule="evenodd" d="M30.9808 6.52406C29.4847 10.1126 27.3863 15.1649 26.3179 17.7515L24.3752 22.4549H12.3129H0.25V24.8825V27.31H11.1979H22.1465L21.7302 28.6239C21.5011 29.3461 19.3209 34.7402 16.8849 40.61L12.4565 51.2821L46.4165 51.4387C78.3654 51.5862 80.3584 51.6584 80.0754 52.6525C79.9106 53.2339 75.6525 63.9273 70.6139 76.4158C65.5747 88.9038 61.4523 99.213 61.4523 99.3259C61.4523 99.4382 72.5275 99.5298 86.0647 99.5298C109.216 99.5298 110.659 99.5929 110.374 100.592C110.208 101.176 101.723 122.385 91.5184 147.724C81.3146 173.062 72.9656 193.887 72.9656 193.999C72.9656 194.112 78.4193 194.205 85.0849 194.205C92.2456 194.205 97.2042 194.438 97.2042 194.775C97.2042 195.089 95.7026 199.254 93.8671 204.03L90.5386 213.179L95.0833 215L98.3899 206.524C98.7269 205.642 99.0968 204.674 99.5044 203.611L102.996 194.508L116.2 194.205L129.403 193.901L149.604 144.136L169.805 94.3713L144.5 94.0678L119.193 93.7644L128.041 72.675L136.889 51.5856L169.614 51.5807L202.339 51.5753L212.797 26.2431C218.549 12.3101 223.253 0.705811 223.25 0.455166C223.247 0.204521 180.597 0 128.473 0H33.701L30.9808 6.52406ZM198.869 45.9664C199.311 45.4184 212.426 14.1684 215.803 5.61373C216.042 5.00866 197.967 4.85511 126.646 4.85511H37.1877L36.5957 6.22061C36.2697 6.97194 34.6609 10.8633 33.0193 14.8688L30.0355 22.1515L63.0139 22.3086L95.9922 22.4652V24.8879V27.31L61.9068 27.3228L27.8213 27.3355L24.048 36.5062C21.9726 41.5501 20.4207 45.9142 20.5995 46.2037C20.7782 46.4932 36.0255 46.7305 54.4819 46.7305H88.0396L78.6847 69.9045C73.5395 82.6504 69.3298 93.4379 69.3298 93.8767C69.3298 95.0176 112.641 95.0564 113.378 93.9161C113.648 93.4992 118.241 82.7797 123.587 70.0957L133.306 47.0339L165.783 46.8767C190.758 46.756 198.401 46.546 198.869 45.9664ZM144.037 144.288C153.951 119.838 162.059 99.6288 162.053 99.3781C162.047 99.1275 151.81 98.9229 139.303 98.9229H116.565L116.038 100.288C115.748 101.04 107.71 121.067 98.1767 144.793C88.6431 168.52 80.8431 188.272 80.8431 188.687C80.8431 189.271 82.9065 189.346 90.0841 189.02C95.1663 188.789 99.502 188.427 99.7177 188.216C99.9334 188.005 105.897 172.675 112.97 154.15C120.043 135.625 125.892 120.396 125.967 120.308C126.157 120.086 130.532 121.943 130.532 122.246C130.532 122.431 108.442 180.247 105.647 187.377L105.112 188.743H115.561H126.011L144.037 144.288Z" fill="white"/>
</svg>
